{
    "asset" : {
        "generator" : "Khronos glTF Blender I/O v1.6.16",
        "version" : "2.0"
    },
    "scene" : 0,
    "scenes" : [
        {
            "name" : "Scene",
            "nodes" : [
                0,
                1,
                2,
                3
            ]
        }
    ],
    "nodes" : [
        {
            "name" : "Light",
            "rotation" : [
                0.16907575726509094,
                0.7558803558349609,
                -0.27217137813568115,
                0.570947527885437
            ],
            "translation" : [
                4.076245307922363,
                5.903861999511719,
                -1.0054539442062378
            ]
        },
        {
            "name" : "Camera",
            "rotation" : [
                0.166809543967247,
                0.7509332299232483,
                -0.6044250726699829,
                0.20722971856594086
            ],
            "translation" : [
                9.98101806640625,
                3.977041244506836,
                -14.60653305053711
            ]
        },
        {
            "name" : "Empty",
            "rotation" : [
                0,
                0.7071068286895752,
                -0.7071068286895752,
                -3.090862321641907e-08
            ],
            "scale" : [
                2,
                2,
                2
            ],
            "translation" : [
                0,
                -0.5,
                0
            ]
        },
        {
            "mesh" : 0,
            "name" : "Sketchware",
            "scale" : [
                1,
                1,
                0.30000001192092896
            ]
        }
    ],
    "meshes" : [
        {
            "name" : "Cube.001",
            "primitives" : [
                {
                    "attributes" : {
                        "POSITION" : 0,
                        "NORMAL" : 1,
                        "TEXCOORD_0" : 2
                    },
                    "indices" : 3
                }
            ]
        }
    ],
    "accessors" : [
        {
            "bufferView" : 0,
            "componentType" : 5126,
            "count" : 354,
            "max" : [
                1.341999888420105,
                2.829360008239746,
                1.0035679340362549
            ],
            "min" : [
                -1.4615675210952759,
                -2.7874808311462402,
                -1
            ],
            "type" : "VEC3"
        },
        {
            "bufferView" : 1,
            "componentType" : 5126,
            "count" : 354,
            "type" : "VEC3"
        },
        {
            "bufferView" : 2,
            "componentType" : 5126,
            "count" : 354,
            "type" : "VEC2"
        },
        {
            "bufferView" : 3,
            "componentType" : 5123,
            "count" : 684,
            "type" : "SCALAR"
        }
    ],
    "bufferViews" : [
        {
            "buffer" : 0,
            "byteLength" : 4248,
            "byteOffset" : 0
        },
        {
            "buffer" : 0,
            "byteLength" : 4248,
            "byteOffset" : 4248
        },
        {
            "buffer" : 0,
            "byteLength" : 2832,
            "byteOffset" : 8496
        },
        {
            "buffer" : 0,
            "byteLength" : 1368,
            "byteOffset" : 11328
        }
    ],
    "buffers" : [
        {
            "byteLength" : 12696,
            "uri" : "data:application/octet-stream;base64,"
        }
    ]
}
