# Blender v2.93.5 OBJ File: ''
# www.blender.org
mtllib tnt-model.mtl
o Cube_Cube.007
v -1.000000 -1.000000 1.000000
v -1.000000 1.000000 1.000000
v -1.000000 -1.000000 -1.000000
v -1.000000 1.000000 -1.000000
v 1.000000 -1.000000 1.000000
v 1.000000 1.000000 1.000000
v 1.000000 -1.000000 -1.000000
v 1.000000 1.000000 -1.000000
v -1.000000 -1.000000 0.750000
v 1.000000 1.000000 0.750000
v -1.000000 1.000000 0.750000
v 1.000000 -1.000000 0.750000
v -1.000000 1.000000 0.250000
v 1.000000 -1.000000 0.250000
v -1.000000 -1.000000 0.250000
v 1.000000 1.000000 0.250000
v -1.000000 -1.000000 -0.250000
v 1.000000 1.000000 -0.250000
v -1.000000 1.000000 -0.250000
v 1.000000 -1.000000 -0.250000
v -1.000000 1.000000 -0.750000
v 1.000000 -1.000000 -0.750000
v -1.000000 -1.000000 -0.750000
v 1.000000 1.000000 -0.750000
v 1.100000 1.000000 0.750000
v 1.100000 -1.000000 0.750000
v 1.100000 -1.000000 0.250000
v 1.100000 1.000000 0.250000
v 1.100000 1.000000 -0.250000
v 1.100000 -1.000000 -0.250000
v 1.100000 -1.000000 -0.750000
v 1.100000 1.000000 -0.750000
v -1.100000 -1.000000 -0.250000
v -1.100000 1.000000 -0.250000
v -1.100000 1.000000 -0.750000
v -1.100000 -1.000000 -0.750000
v -1.100000 -1.000000 0.750000
v -1.100000 1.000000 0.750000
v -1.100000 1.000000 0.250000
v -1.100000 -1.000000 0.250000
v -0.750000 -1.000000 1.000000
v -0.250000 -1.000000 1.000000
v 0.250000 -1.000000 1.000000
v 0.750000 -1.000000 1.000000
v 0.750000 1.000000 1.000000
v 0.250000 1.000000 1.000000
v -0.250000 1.000000 1.000000
v -0.750000 1.000000 1.000000
v -0.750000 -1.000000 1.100000
v -0.250000 -1.000000 1.100000
v -0.250000 1.000000 1.100000
v -0.750000 1.000000 1.100000
v 0.250000 -1.000000 1.100000
v 0.750000 -1.000000 1.100000
v 0.750000 1.000000 1.100000
v 0.250000 1.000000 1.100000
v 0.750000 -1.000000 -1.000000
v 0.250000 -1.000000 -1.000000
v -0.250000 -1.000000 -1.000000
v -0.750000 -1.000000 -1.000000
v -0.750000 1.000000 -1.000000
v -0.250000 1.000000 -1.000000
v 0.250000 1.000000 -1.000000
v 0.750000 1.000000 -1.000000
v 0.750000 -1.000000 -1.100000
v 0.250000 -1.000000 -1.100000
v 0.250000 1.000000 -1.100000
v 0.750000 1.000000 -1.100000
v -0.250000 -1.000000 -1.100000
v -0.750000 -1.000000 -1.100000
v -0.750000 1.000000 -1.100000
v -0.250000 1.000000 -1.100000
vt 0.375000 0.218750
vt 0.625000 0.218750
vt 0.625000 0.250000
vt 0.375000 0.250000
vt 0.375000 0.468750
vt 0.625000 0.468750
vt 0.625000 0.500000
vt 0.375000 0.500000
vt 0.375000 0.718750
vt 0.625000 0.718750
vt 0.625000 0.750000
vt 0.375000 0.750000
vt 0.375000 0.968750
vt 0.625000 0.968750
vt 0.625000 1.000000
vt 0.375000 1.000000
vt 0.625000 0.656250
vt 0.625000 0.718750
vt 0.375000 0.718750
vt 0.375000 0.656250
vt 0.625000 0.593750
vt 0.625000 0.656250
vt 0.375000 0.656250
vt 0.375000 0.593750
vt 0.375000 0.031250
vt 0.625000 0.031250
vt 0.625000 0.031250
vt 0.375000 0.031250
vt 0.875000 0.718750
vt 0.875000 0.750000
vt 0.843750 0.750000
vt 0.781250 0.750000
vt 0.718750 0.750000
vt 0.656250 0.750000
vt 0.625000 0.531250
vt 0.656250 0.500000
vt 0.718750 0.500000
vt 0.781250 0.500000
vt 0.843750 0.500000
vt 0.875000 0.500000
vt 0.875000 0.531250
vt 0.875000 0.593750
vt 0.875000 0.656250
vt 0.343750 0.750000
vt 0.281250 0.750000
vt 0.218750 0.750000
vt 0.156250 0.750000
vt 0.125000 0.750000
vt 0.125000 0.718750
vt 0.125000 0.656250
vt 0.125000 0.593750
vt 0.125000 0.531250
vt 0.125000 0.500000
vt 0.156250 0.500000
vt 0.218750 0.500000
vt 0.281250 0.500000
vt 0.343750 0.500000
vt 0.375000 0.531250
vt 0.375000 0.593750
vt 0.625000 0.593750
vt 0.375000 0.218750
vt 0.625000 0.218750
vt 0.375000 0.000000
vt 0.625000 0.000000
vt 0.625000 0.531250
vt 0.625000 0.093750
vt 0.375000 0.093750
vt 0.375000 0.093750
vt 0.625000 0.093750
vt 0.125000 0.593750
vt 0.125000 0.531250
vt 0.625000 0.156250
vt 0.375000 0.156250
vt 0.875000 0.656250
vt 0.875000 0.718750
vt 0.375000 0.531250
vt 0.875000 0.531250
vt 0.875000 0.593750
vt 0.625000 0.156250
vt 0.375000 0.156250
vt 0.125000 0.718750
vt 0.125000 0.656250
vt 0.625000 0.781250
vt 0.375000 0.781250
vt 0.625000 0.843750
vt 0.375000 0.843750
vt 0.375000 0.843750
vt 0.625000 0.843750
vt 0.218750 0.750000
vt 0.156250 0.750000
vt 0.843750 0.750000
vt 0.781250 0.750000
vt 0.375000 0.906250
vt 0.625000 0.906250
vt 0.625000 0.906250
vt 0.375000 0.906250
vt 0.375000 0.968750
vt 0.625000 0.968750
vt 0.343750 0.750000
vt 0.281250 0.750000
vt 0.625000 0.781250
vt 0.375000 0.781250
vt 0.718750 0.750000
vt 0.656250 0.750000
vt 0.625000 0.281250
vt 0.625000 0.343750
vt 0.375000 0.343750
vt 0.375000 0.281250
vt 0.625000 0.281250
vt 0.375000 0.281250
vt 0.281250 0.500000
vt 0.343750 0.500000
vt 0.156250 0.500000
vt 0.218750 0.500000
vt 0.781250 0.500000
vt 0.843750 0.500000
vt 0.625000 0.406250
vt 0.625000 0.468750
vt 0.375000 0.468750
vt 0.375000 0.406250
vt 0.656250 0.500000
vt 0.718750 0.500000
vt 0.375000 0.406250
vt 0.625000 0.406250
vt 0.625000 0.343750
vt 0.375000 0.343750
vn -1.0000 0.0000 0.0000
vn 0.0000 0.0000 -1.0000
vn 1.0000 0.0000 0.0000
vn 0.0000 0.0000 1.0000
vn 0.0000 1.0000 0.0000
vn 0.0000 -1.0000 0.0000
usemtl None
s off
f 23/1/1 21/2/1 4/3/1 3/4/1
f 57/5/2 64/6/2 8/7/2 7/8/2
f 12/9/3 10/10/3 6/11/3 5/12/3
f 41/13/4 48/14/4 2/15/4 1/16/4
f 28/17/3 25/18/3 26/19/3 27/20/3
f 18/21/3 16/22/3 14/23/3 20/24/3
f 9/25/4 11/26/4 38/27/4 37/28/4
f 11/29/5 2/30/5 48/31/5 47/32/5 46/33/5 45/34/5 6/11/5 10/10/5 16/22/5 18/21/5 24/35/5 8/7/5 64/36/5 63/37/5 62/38/5 61/39/5 4/40/5 21/41/5 19/42/5 13/43/5
f 12/9/6 5/12/6 44/44/6 43/45/6 42/46/6 41/47/6 1/48/6 9/49/6 15/50/6 17/51/6 23/52/6 3/53/6 60/54/6 59/55/6 58/56/6 57/57/6 7/8/6 22/58/6 20/24/6 14/23/6
f 10/10/4 12/9/4 26/19/4 25/18/4
f 18/21/4 20/24/4 30/59/4 29/60/4
f 21/2/2 23/1/2 36/61/2 35/62/2
f 1/63/1 2/64/1 11/26/1 9/25/1
f 24/35/5 18/21/5 29/60/5 32/65/5
f 13/66/2 15/67/2 40/68/2 39/69/2
f 23/52/6 17/51/6 33/70/6 36/71/6
f 13/66/1 19/72/1 17/73/1 15/67/1
f 7/8/3 8/7/3 24/35/3 22/58/3
f 11/29/5 13/43/5 39/74/5 38/75/5
f 32/65/3 29/60/3 30/59/3 31/76/3
f 14/23/2 16/22/2 28/17/2 27/20/2
f 20/24/6 22/58/6 31/76/6 30/59/6
f 16/22/5 10/10/5 25/18/5 28/17/5
f 22/58/2 24/35/2 32/65/2 31/76/2
f 12/9/6 14/23/6 27/20/6 26/19/6
f 19/42/5 21/41/5 35/77/5 34/78/5
f 17/73/4 19/72/4 34/79/4 33/80/4
f 15/50/6 9/49/6 37/81/6 40/82/6
f 34/79/1 35/62/1 36/61/1 33/80/1
f 38/27/1 39/69/1 40/68/1 37/28/1
f 5/12/4 6/11/4 45/83/4 44/84/4
f 46/85/1 43/86/1 53/87/1 56/88/1
f 41/47/6 42/46/6 50/89/6 49/90/6
f 47/32/5 48/31/5 52/91/5 51/92/5
f 42/93/3 47/94/3 51/95/3 50/96/3
f 48/14/1 41/13/1 49/97/1 52/98/1
f 46/85/4 47/94/4 42/93/4 43/86/4
f 43/45/6 44/44/6 54/99/6 53/100/6
f 55/101/4 56/88/4 53/87/4 54/102/4
f 45/34/5 46/33/5 56/103/5 55/104/5
f 71/105/2 72/106/2 69/107/2 70/108/2
f 44/84/3 45/83/3 55/101/3 54/102/3
f 3/4/2 4/3/2 61/109/2 60/110/2
f 57/57/6 58/56/6 66/111/6 65/112/6
f 59/55/6 60/54/6 70/113/6 69/114/6
f 61/39/5 62/38/5 72/115/5 71/116/5
f 67/117/2 68/118/2 65/119/2 66/120/2
f 63/37/5 64/36/5 68/121/5 67/122/5
f 64/6/3 57/5/3 65/119/3 68/118/3
f 58/123/1 63/124/1 67/117/1 66/120/1
f 62/125/2 63/124/2 58/123/2 59/126/2
f 62/125/3 59/126/3 69/107/3 72/106/3
f 60/110/1 61/109/1 71/105/1 70/108/1
f 51/95/4 52/98/4 49/97/4 50/96/4
